<mxfile host="app.diagrams.net" modified="2022-06-29T13:01:31.902Z" agent="5.0 (Macintosh; Intel Mac OS X 10_15_7) AppleWebKit/605.1.15 (KHTML, like Gecko) Version/15.4 Safari/605.1.15" etag="0qd1VYFuqonVdHZYiVqg" version="20.0.3" type="github">
  <diagram name="Page-1" id="9361dd3d-8414-5efd-6122-117bd74ce7a7">
    <mxGraphModel dx="1007" dy="704" grid="1" gridSize="10" guides="1" tooltips="1" connect="1" arrows="1" fold="1" page="0" pageScale="1.5" pageWidth="826" pageHeight="1169" background="none" math="0" shadow="0">
      <root>
        <mxCell id="0" />
        <mxCell id="1" parent="0" />
        <mxCell id="69" value="" style="fillColor=#DEE8FF;strokeColor=none" parent="1" vertex="1">
          <mxGeometry x="40" y="50" width="850" height="670" as="geometry" />
        </mxCell>
        <mxCell id="20" value="" style="fillColor=#CCD5EB" parent="1" vertex="1">
          <mxGeometry x="90" y="450" width="750" height="200" as="geometry" />
        </mxCell>
        <mxCell id="4" value=":Cooling" style="shadow=1;fillColor=#A2C4C9;strokeColor=none" parent="1" vertex="1">
          <mxGeometry x="152.5" y="87.08" width="105" height="50" as="geometry" />
        </mxCell>
        <mxCell id="6" value="" style="fillColor=#990000;strokeColor=#000000;" parent="1" vertex="1">
          <mxGeometry x="430" y="299.39" width="10" height="30.61" as="geometry" />
        </mxCell>
        <mxCell id="7" value=":Sensor" style="shadow=1;fillColor=#A2C4C9;strokeColor=none" parent="1" vertex="1">
          <mxGeometry x="385" y="87.08" width="105" height="50" as="geometry" />
        </mxCell>
        <mxCell id="8" value="" style="edgeStyle=none;endArrow=none;dashed=1" parent="1" edge="1">
          <mxGeometry x="306.3350694444445" y="164.39" width="100" height="100" as="geometry">
            <mxPoint x="437" y="139.39" as="sourcePoint" />
            <mxPoint x="437" y="299.39" as="targetPoint" />
            <Array as="points">
              <mxPoint x="437" y="219.39" />
            </Array>
          </mxGeometry>
        </mxCell>
        <mxCell id="15" value=":Cooler" style="shadow=1;fillColor=#A2C4C9;strokeColor=none" parent="1" vertex="1">
          <mxGeometry x="590.0039506172839" y="87.07999999999997" width="105" height="50" as="geometry" />
        </mxCell>
        <mxCell id="71" value="Cooling interaction" style="rounded=1;fontStyle=1;fillColor=#FFD966;strokeColor=none" parent="1" vertex="1">
          <mxGeometry x="50" y="20" width="150" height="30" as="geometry" />
        </mxCell>
        <mxCell id="KWaYDghVdsMkwN6aYNVy-91" value="" style="html=1;points=[];perimeter=orthogonalPerimeter;strokeColor=#000000;fillColor=#990000;" vertex="1" parent="1">
          <mxGeometry x="200" y="180" width="10" height="30" as="geometry" />
        </mxCell>
        <mxCell id="KWaYDghVdsMkwN6aYNVy-92" value="check_the_day_type" style="edgeStyle=orthogonalEdgeStyle;html=1;align=left;spacingLeft=2;endArrow=block;rounded=0;entryX=1;entryY=0;" edge="1" target="KWaYDghVdsMkwN6aYNVy-91" parent="1">
          <mxGeometry relative="1" as="geometry">
            <mxPoint x="205" y="160" as="sourcePoint" />
            <Array as="points">
              <mxPoint x="205" y="160" />
              <mxPoint x="235" y="160" />
              <mxPoint x="235" y="180" />
            </Array>
          </mxGeometry>
        </mxCell>
        <mxCell id="KWaYDghVdsMkwN6aYNVy-96" value="" style="html=1;points=[];perimeter=orthogonalPerimeter;strokeColor=#000000;fillColor=#990000;" vertex="1" parent="1">
          <mxGeometry x="200" y="233.78" width="10" height="36.22" as="geometry" />
        </mxCell>
        <mxCell id="KWaYDghVdsMkwN6aYNVy-97" value="check_the_time_slot" style="edgeStyle=orthogonalEdgeStyle;html=1;align=left;spacingLeft=2;endArrow=block;rounded=0;entryX=1;entryY=0;fillColor=#990000;" edge="1" target="KWaYDghVdsMkwN6aYNVy-96" parent="1">
          <mxGeometry relative="1" as="geometry">
            <mxPoint x="205" y="210" as="sourcePoint" />
            <Array as="points">
              <mxPoint x="230" y="210" />
              <mxPoint x="230" y="234" />
            </Array>
          </mxGeometry>
        </mxCell>
        <mxCell id="KWaYDghVdsMkwN6aYNVy-99" value="" style="html=1;points=[];perimeter=orthogonalPerimeter;strokeColor=#000000;fillColor=#990000;" vertex="1" parent="1">
          <mxGeometry x="200" y="299.39" width="10" height="130.61" as="geometry" />
        </mxCell>
        <mxCell id="KWaYDghVdsMkwN6aYNVy-100" value="" style="edgeStyle=none;dashed=1;endArrow=none;exitX=0.4;exitY=1.073;exitDx=0;exitDy=0;exitPerimeter=0;" edge="1" parent="1" source="KWaYDghVdsMkwN6aYNVy-96" target="KWaYDghVdsMkwN6aYNVy-99">
          <mxGeometry x="50" y="300" width="100" height="100" as="geometry">
            <mxPoint x="204" y="272.64405999999997" as="sourcePoint" />
            <mxPoint x="204.5349150674581" y="399.15999999999985" as="targetPoint" />
          </mxGeometry>
        </mxCell>
        <mxCell id="KWaYDghVdsMkwN6aYNVy-106" value="check_outdoor_t°" style="html=1;verticalAlign=bottom;endArrow=block;rounded=0;fillColor=#990000;entryX=0;entryY=0.5;entryDx=0;entryDy=0;" edge="1" parent="1" target="6">
          <mxGeometry width="80" relative="1" as="geometry">
            <mxPoint x="210" y="314.39" as="sourcePoint" />
            <mxPoint x="390" y="314" as="targetPoint" />
          </mxGeometry>
        </mxCell>
        <mxCell id="KWaYDghVdsMkwN6aYNVy-110" value="" style="html=1;points=[];perimeter=orthogonalPerimeter;strokeColor=#000000;fillColor=#990000;" vertex="1" parent="1">
          <mxGeometry x="430" y="360" width="10" height="40.31" as="geometry" />
        </mxCell>
        <mxCell id="KWaYDghVdsMkwN6aYNVy-111" value="verify_in_Belief_graph" style="edgeStyle=orthogonalEdgeStyle;html=1;align=left;spacingLeft=2;endArrow=block;rounded=0;entryX=1;entryY=0;fillColor=#990000;" edge="1" target="KWaYDghVdsMkwN6aYNVy-110" parent="1">
          <mxGeometry relative="1" as="geometry">
            <mxPoint x="440" y="330" as="sourcePoint" />
            <Array as="points">
              <mxPoint x="480" y="330" />
              <mxPoint x="480" y="360" />
            </Array>
          </mxGeometry>
        </mxCell>
        <mxCell id="KWaYDghVdsMkwN6aYNVy-112" value="send_t°" style="endArrow=block;endFill=1;html=1;edgeStyle=orthogonalEdgeStyle;align=left;verticalAlign=top;rounded=0;fillColor=#990000;exitX=0.9;exitY=0.397;exitDx=0;exitDy=0;exitPerimeter=0;entryX=1.2;entryY=0.571;entryDx=0;entryDy=0;entryPerimeter=0;" edge="1" parent="1">
          <mxGeometry x="0.2926" y="-24" relative="1" as="geometry">
            <mxPoint x="436" y="376.00307" as="sourcePoint" />
            <mxPoint x="209" y="373.96831" as="targetPoint" />
            <Array as="points">
              <mxPoint x="436" y="374" />
            </Array>
            <mxPoint as="offset" />
          </mxGeometry>
        </mxCell>
        <mxCell id="KWaYDghVdsMkwN6aYNVy-116" value="add_result_in_Belief_graph" style="edgeStyle=orthogonalEdgeStyle;html=1;align=left;spacingLeft=2;endArrow=block;rounded=0;fillColor=#990000;" edge="1" parent="1">
          <mxGeometry relative="1" as="geometry">
            <mxPoint x="210.41000000000003" y="400" as="sourcePoint" />
            <Array as="points">
              <mxPoint x="235.85" y="400" />
              <mxPoint x="235.85" y="417" />
            </Array>
            <mxPoint x="210.85" y="417" as="targetPoint" />
          </mxGeometry>
        </mxCell>
        <mxCell id="KWaYDghVdsMkwN6aYNVy-124" value="" style="edgeStyle=none;dashed=1;endArrow=none;startArrow=none;" edge="1" parent="1">
          <mxGeometry x="51.5" y="-19.829999999999984" width="100" height="100" as="geometry">
            <mxPoint x="204.5" y="140.17000000000002" as="sourcePoint" />
            <mxPoint x="204.5" y="180.17000000000002" as="targetPoint" />
          </mxGeometry>
        </mxCell>
        <mxCell id="72" value="alt" style="rounded=1;fontStyle=1;fillColor=#FFD966;strokeColor=none" parent="1" vertex="1">
          <mxGeometry x="93" y="455.39" width="67.5" height="30" as="geometry" />
        </mxCell>
        <mxCell id="KWaYDghVdsMkwN6aYNVy-128" value="&lt;h1&gt;&lt;font style=&quot;font-size: 14px;&quot;&gt;&lt;span style=&quot;white-space: pre;&quot;&gt;	&lt;span style=&quot;white-space: pre;&quot;&gt;	&lt;/span&gt;&lt;/span&gt;[all_conditions_are_verified_for_charge ]&lt;/font&gt;&lt;/h1&gt;" style="text;html=1;resizable=0;autosize=1;align=center;verticalAlign=middle;points=[];fillColor=none;strokeColor=none;rounded=0;" vertex="1" parent="1">
          <mxGeometry x="130" y="443.39" width="360" height="70" as="geometry" />
        </mxCell>
        <mxCell id="KWaYDghVdsMkwN6aYNVy-134" value="" style="edgeStyle=none;endArrow=none;dashed=1;" edge="1" parent="1">
          <mxGeometry x="74.29506944444452" y="454.47" width="100" height="100" as="geometry">
            <mxPoint x="204.96" y="429.47" as="sourcePoint" />
            <mxPoint x="205" y="650" as="targetPoint" />
          </mxGeometry>
        </mxCell>
        <mxCell id="KWaYDghVdsMkwN6aYNVy-135" value="" style="edgeStyle=none;endArrow=none;dashed=1;exitX=0.55;exitY=1.05;exitDx=0;exitDy=0;exitPerimeter=0;" edge="1" parent="1" source="KWaYDghVdsMkwN6aYNVy-110">
          <mxGeometry x="271.3350694444445" y="420.12000000000006" width="100" height="100" as="geometry">
            <mxPoint x="402" y="395.12000000000006" as="sourcePoint" />
            <mxPoint x="436" y="450" as="targetPoint" />
          </mxGeometry>
        </mxCell>
        <mxCell id="KWaYDghVdsMkwN6aYNVy-136" value="" style="html=1;verticalAlign=bottom;endArrow=block;rounded=0;fontSize=14;fillColor=#990000;" edge="1" parent="1" target="KWaYDghVdsMkwN6aYNVy-163">
          <mxGeometry width="80" relative="1" as="geometry">
            <mxPoint x="210" y="528" as="sourcePoint" />
            <mxPoint x="640" y="528" as="targetPoint" />
          </mxGeometry>
        </mxCell>
        <mxCell id="KWaYDghVdsMkwN6aYNVy-139" value="&lt;font style=&quot;font-size: 12px;&quot;&gt;send_statut_ON&lt;/font&gt;" style="edgeLabel;html=1;align=center;verticalAlign=middle;resizable=0;points=[];fontSize=14;" vertex="1" connectable="0" parent="KWaYDghVdsMkwN6aYNVy-136">
          <mxGeometry x="-0.6821" y="2" relative="1" as="geometry">
            <mxPoint x="136" y="-9" as="offset" />
          </mxGeometry>
        </mxCell>
        <mxCell id="KWaYDghVdsMkwN6aYNVy-137" value="" style="edgeStyle=none;endArrow=none;dashed=1;" edge="1" parent="1">
          <mxGeometry x="498.7950694444445" y="159.16000000000003" width="100" height="100" as="geometry">
            <mxPoint x="642" y="137.08" as="sourcePoint" />
            <mxPoint x="642" y="457.08" as="targetPoint" />
            <Array as="points">
              <mxPoint x="642" y="297.08" />
              <mxPoint x="642" y="407.08" />
            </Array>
          </mxGeometry>
        </mxCell>
        <mxCell id="KWaYDghVdsMkwN6aYNVy-138" value="" style="edgeStyle=none;endArrow=none;dashed=1;entryX=0.737;entryY=1.015;entryDx=0;entryDy=0;entryPerimeter=0;" edge="1" parent="1" target="20">
          <mxGeometry x="581.4878472222224" y="515.39" width="100" height="100" as="geometry">
            <mxPoint x="642" y="450.39" as="sourcePoint" />
            <mxPoint x="642" y="540" as="targetPoint" />
          </mxGeometry>
        </mxCell>
        <mxCell id="KWaYDghVdsMkwN6aYNVy-153" value="" style="endArrow=none;html=1;edgeStyle=orthogonalEdgeStyle;rounded=0;fontSize=12;fillColor=#990000;" edge="1" parent="1">
          <mxGeometry relative="1" as="geometry">
            <mxPoint x="90" y="560" as="sourcePoint" />
            <mxPoint x="840" y="620" as="targetPoint" />
            <Array as="points">
              <mxPoint x="840" y="560" />
              <mxPoint x="840" y="590" />
              <mxPoint x="839" y="590" />
            </Array>
          </mxGeometry>
        </mxCell>
        <mxCell id="KWaYDghVdsMkwN6aYNVy-160" value="&lt;h1&gt;&lt;font style=&quot;font-size: 14px;&quot;&gt;[all_conditions_are_not_verified]&lt;/font&gt;&lt;/h1&gt;" style="text;html=1;resizable=0;autosize=1;align=center;verticalAlign=middle;points=[];fillColor=none;strokeColor=none;rounded=0;fontSize=12;" vertex="1" parent="1">
          <mxGeometry x="193" y="540" width="240" height="70" as="geometry" />
        </mxCell>
        <mxCell id="KWaYDghVdsMkwN6aYNVy-161" value="" style="html=1;verticalAlign=bottom;endArrow=block;rounded=0;fontSize=14;fillColor=#990000;" edge="1" parent="1">
          <mxGeometry width="80" relative="1" as="geometry">
            <mxPoint x="210" y="620" as="sourcePoint" />
            <mxPoint x="640" y="620" as="targetPoint" />
          </mxGeometry>
        </mxCell>
        <mxCell id="KWaYDghVdsMkwN6aYNVy-162" value="&lt;font style=&quot;font-size: 12px;&quot;&gt;send_statut_OFF&lt;/font&gt;" style="edgeLabel;html=1;align=center;verticalAlign=middle;resizable=0;points=[];fontSize=14;" vertex="1" connectable="0" parent="KWaYDghVdsMkwN6aYNVy-161">
          <mxGeometry x="-0.6821" y="2" relative="1" as="geometry">
            <mxPoint x="136" y="-9" as="offset" />
          </mxGeometry>
        </mxCell>
        <mxCell id="KWaYDghVdsMkwN6aYNVy-163" value="" style="html=1;points=[];perimeter=orthogonalPerimeter;fontSize=14;strokeColor=#000000;fillColor=#990000;" vertex="1" parent="1">
          <mxGeometry x="635" y="508" width="10" height="40" as="geometry" />
        </mxCell>
        <mxCell id="KWaYDghVdsMkwN6aYNVy-166" value="" style="html=1;points=[];perimeter=orthogonalPerimeter;fontSize=14;strokeColor=#000000;fillColor=#990000;" vertex="1" parent="1">
          <mxGeometry x="635" y="508" width="10" height="40" as="geometry" />
        </mxCell>
        <mxCell id="KWaYDghVdsMkwN6aYNVy-167" value="&lt;font style=&quot;font-size: 12px;&quot;&gt;add_statut_in_Belief_graph&lt;/font&gt;&amp;nbsp;" style="edgeStyle=orthogonalEdgeStyle;html=1;align=left;spacingLeft=2;endArrow=block;rounded=0;entryX=1;entryY=0;fontSize=14;fillColor=#990000;" edge="1" parent="1">
          <mxGeometry x="0.0227" y="3" relative="1" as="geometry">
            <mxPoint x="642" y="490" as="sourcePoint" />
            <Array as="points">
              <mxPoint x="677" y="490" />
              <mxPoint x="677" y="508" />
            </Array>
            <mxPoint x="642" y="508" as="targetPoint" />
            <mxPoint as="offset" />
          </mxGeometry>
        </mxCell>
        <mxCell id="KWaYDghVdsMkwN6aYNVy-170" value="" style="html=1;points=[];perimeter=orthogonalPerimeter;fontSize=12;strokeColor=#000000;fillColor=#990000;" vertex="1" parent="1">
          <mxGeometry x="638" y="600" width="10" height="40" as="geometry" />
        </mxCell>
        <mxCell id="KWaYDghVdsMkwN6aYNVy-171" value="add_statut_in_Belief_graph" style="edgeStyle=orthogonalEdgeStyle;html=1;align=left;spacingLeft=2;endArrow=block;rounded=0;entryX=1;entryY=0;fontSize=12;fillColor=#990000;" edge="1" target="KWaYDghVdsMkwN6aYNVy-170" parent="1">
          <mxGeometry relative="1" as="geometry">
            <mxPoint x="643" y="580" as="sourcePoint" />
            <Array as="points">
              <mxPoint x="673" y="580" />
            </Array>
          </mxGeometry>
        </mxCell>
      </root>
    </mxGraphModel>
  </diagram>
</mxfile>
